<?xml version="1.0" encoding="utf-8"?>
<svg version="1.1" xmlns:xlink="http://www.w3.org/1999/xlink" width="300px" height="400px" xmlns="http://www.w3.org/2000/svg">
  <g transform="matrix(1 0 0 1 -304 -204 )">
    <path d="M 304 204  L 604 204  L 604 604  L 304 604  L 304 204  " fill-rule="nonzero" fill="#cccccc" stroke="none" />
    <path d="M 325 225  L 583 225  L 583 583  L 325 583  L 325 225  " fill-rule="nonzero" fill="#ffffff" stroke="none" />
    <path d="M 482.5 309  C 469.9 309  460 299.1  460 286.5  C 460 273.9  469.9 264  482.5 264  C 495.1 264  505 273.9  505 286.5  C 505 299.1  495.1 309  482.5 309  " fill-rule="nonzero" fill="#cccccc" stroke="none" />
    <path d="M 333 576  L 333 387.35  L 393.75 301.6  L 478.8 370.2  L 527.4 353.05  L 576 370.2  L 576 576  L 333 576  " fill-rule="nonzero" fill="#169bd5" stroke="none" />
  </g>
</svg>